<svg width="60" height="61" viewBox="0 0 60 61" fill="none" xmlns="http://www.w3.org/2000/svg">
<circle cx="30" cy="30.2529" r="29" stroke="#F53838" stroke-width="2"/>
<path d="M38.75 30.0029H23.925L28.4625 24.5529C28.6747 24.2976 28.7768 23.9685 28.7463 23.638C28.7158 23.3075 28.5553 23.0026 28.3 22.7904C28.0447 22.5782 27.7156 22.4762 27.3851 22.5066C27.0546 22.5371 26.7497 22.6976 26.5375 22.9529L20.2875 30.4529C20.2455 30.5126 20.2078 30.5752 20.175 30.6404C20.175 30.7029 20.175 30.7404 20.0875 30.8029C20.0308 30.9462 20.0012 31.0988 20 31.2529C20.0012 31.407 20.0308 31.5596 20.0875 31.7029C20.0875 31.7654 20.0875 31.8029 20.175 31.8654C20.2078 31.9306 20.2455 31.9933 20.2875 32.0529L26.5375 39.5529C26.655 39.694 26.8022 39.8075 26.9686 39.8853C27.1349 39.963 27.3164 40.0032 27.5 40.0029C27.7921 40.0035 28.0751 39.9018 28.3 39.7154C28.4266 39.6105 28.5312 39.4816 28.6079 39.3362C28.6846 39.1907 28.7318 39.0316 28.7469 38.8679C28.762 38.7042 28.7447 38.5391 28.6959 38.3821C28.6471 38.2251 28.5678 38.0792 28.4625 37.9529L23.925 32.5029H38.75C39.0815 32.5029 39.3995 32.3712 39.6339 32.1368C39.8683 31.9024 40 31.5844 40 31.2529C40 30.9214 39.8683 30.6034 39.6339 30.369C39.3995 30.1346 39.0815 30.0029 38.75 30.0029Z" fill="#F53838"/>
</svg>
